<svg xmlns="http://www.w3.org/2000/svg" version="1.1" xmlns:xlink="http://www.w3.org/1999/xlink" xmlns:svgjs="http://svgjs.dev/svgjs" width="2000" height="1247" viewBox="0 0 2000 1247"><g transform="matrix(1,0,0,1,-1.2121212121212466,0.504858299595071)"><svg viewBox="0 0 396 247" data-background-color="#ffffff" preserveAspectRatio="xMidYMid meet" height="1247" width="2000" xmlns="http://www.w3.org/2000/svg" xmlns:xlink="http://www.w3.org/1999/xlink"><g id="tight-bounds" transform="matrix(1,0,0,1,0.2400000000000091,-0.09999999999999432)"><svg viewBox="0 0 395.52 247.2" height="247.2" width="395.52"><g><svg></svg></g><g><svg viewBox="0 0 395.52 247.2" height="247.2" width="395.52"><g transform="matrix(1,0,0,1,140.4714,47.215199999999996)"><svg viewBox="0 0 114.57719999999999 152.7696" height="152.7696" width="114.57719999999999"><g><svg viewBox="0 0 114.57719999999999 152.7696" height="152.7696" width="114.57719999999999"><g><svg viewBox="0 0 114.57719999999999 152.7696" height="152.7696" width="114.57719999999999"><g><svg viewBox="0 0 114.57719999999999 152.7696" height="152.7696" width="114.57719999999999"><g id="textblocktransform"><svg viewBox="0 0 114.57719999999999 152.7696" height="152.7696" width="114.57719999999999" id="textblock"><g><svg viewBox="0 0 114.57719999999999 152.7696" height="152.7696" width="114.57719999999999"><g transform="matrix(1,0,0,1,0,0)"><svg width="114.57719999999999" viewBox="1.1 -33 24.75 33" height="152.7696" data-palette-color="#4790fc"><path d="M25.4 0L1.1 0 1.1-0.5 2.15-0.9Q3.2-1.3 3.48-1.88 3.75-2.45 3.75-3.45L3.75-3.45 3.75-29.55Q3.75-30.55 3.45-31.15 3.15-31.75 2.15-32.1L2.15-32.1 1.1-32.5 1.1-33 13.85-33 13.85-32.5 12.95-32.1Q12-31.75 11.65-31.13 11.3-30.5 11.3-29.5L11.3-29.5 11.3-1 19-1Q20.85-1 21.73-1.9 22.6-2.8 23.4-4.5L23.4-4.5 25.35-8.7 25.85-8.7 25.4 0Z" opacity="1" transform="matrix(1,0,0,1,0,0)" fill="#000000" class="wordmark-text-0" data-fill-palette-color="primary" id="text-0"></path></svg></g></svg></g></svg></g></svg></g></svg></g></svg></g></svg></g><g><path d="M0 123.6c0-68.262 55.338-123.6 123.6-123.6 30.402 0 58.24 10.976 79.768 29.183l-11.147 0c-19.26-14.022-42.974-22.294-68.621-22.295-64.458 0-116.712 52.254-116.712 116.712 0 64.458 52.254 116.712 116.712 116.712 25.647 0 49.361-8.272 68.621-22.295l11.147 0c-21.528 18.206-49.366 29.183-79.768 29.183-68.262 0-123.6-55.338-123.6-123.6z" fill="#000000" stroke="transparent" data-fill-palette-color="tertiary"></path></g></svg></g><defs></defs></svg><rect width="395.52" height="247.2" fill="none" stroke="none" visibility="hidden"></rect></g></svg></g></svg>